<svg width="28" height="28" viewBox="0 0 28 28" fill="none" xmlns="http://www.w3.org/2000/svg">
<path d="M3.5 13.1092C3.5 11.8767 4.06811 10.7131 5.03987 9.95515L11.9774 4.5439C13.4235 3.41591 15.4515 3.41591 16.8976 4.5439L23.8351 9.95515C24.8069 10.7131 25.375 11.8767 25.375 13.1092V21.375C25.375 23.5841 23.5841 25.375 21.375 25.375H18.8914C18.3392 25.375 17.8914 24.9273 17.8914 24.375V20.55C17.8914 19.4454 16.996 18.55 15.8914 18.55H12.9836C11.879 18.55 10.9836 19.4454 10.9836 20.55V24.375C10.9836 24.9273 10.5358 25.375 9.98355 25.375H7.5C5.29086 25.375 3.5 23.5841 3.5 21.375L3.5 13.1092Z" stroke="#383838" stroke-width="2"/>
</svg>
