<svg width="28" height="28" viewBox="0 0 28 28" fill="none" xmlns="http://www.w3.org/2000/svg">
<circle cx="3.97163" cy="3.97163" r="3.97163" transform="matrix(-1 0 0 1 18.2197 5.8335)" stroke="#6A6A6A" stroke-width="1.5"/>
<path d="M7.29785 19.6695C7.29785 18.8152 7.83487 18.0532 8.63936 17.7659V17.7659C12.2664 16.4705 16.23 16.4705 19.8571 17.7659V17.7659C20.6615 18.0532 21.1986 18.8152 21.1986 19.6695V20.9756C21.1986 22.1547 20.1543 23.0603 18.9871 22.8936L18.0666 22.7621C15.5339 22.4003 12.9626 22.4003 10.4298 22.7621L9.50926 22.8936C8.3421 23.0603 7.29785 22.1547 7.29785 20.9756V19.6695Z" stroke="#6A6A6A" stroke-width="1.5"/>
<path d="M20.2061 13.8866C21.9295 13.8866 23.3267 12.4895 23.3267 10.7661C23.3267 9.04263 21.9295 7.64551 20.2061 7.64551" stroke="#6A6A6A" stroke-width="1.5" stroke-linecap="round"/>
<path d="M23.6239 21.006L23.9297 21.0497C24.8467 21.1807 25.6672 20.4691 25.6672 19.5427V18.5164C25.6672 17.8452 25.2453 17.2465 24.6132 17.0207C23.9826 16.7955 23.3392 16.6202 22.6885 16.4946" stroke="#6A6A6A" stroke-width="1.5" stroke-linecap="round"/>
<path d="M7.7944 13.8866C6.07095 13.8866 4.67383 12.4895 4.67383 10.7661C4.67383 9.04263 6.07095 7.64551 7.7944 7.64551" stroke="#6A6A6A" stroke-width="1.5" stroke-linecap="round"/>
<path d="M4.37658 21.006L4.07083 21.0497C3.15377 21.1807 2.33329 20.4691 2.33329 19.5427V18.5164C2.33329 17.8452 2.75523 17.2465 3.38733 17.0207C4.01786 16.7955 4.66133 16.6202 5.31201 16.4946" stroke="#6A6A6A" stroke-width="1.5" stroke-linecap="round"/>
</svg>
